<svg xmlns="http://www.w3.org/2000/svg" viewBox="0 0 119.03 20"><defs><style>.cls-1{fill:#eee;}</style></defs><title>资源 1</title><g id="图层_2" data-name="图层 2"><g id="图层_1-2" data-name="图层 1"><path class="cls-1" d="M10.51,0l3.25,6.58L21,7.64l-5.26,5.12L17,20l-6.5-3.42L4,20l1.24-7.24L0,7.64,7.27,6.58Zm94.76,6.58L98,7.64l5.26,5.12L102,20l6.49-3.42L115,20l-1.24-7.24L119,7.64l-7.27-1.06L108.51,0Zm-24.5,0L73.5,7.64l5.26,5.12L77.52,20,84,16.58,90.51,20l-1.24-7.24,5.26-5.12L87.26,6.58,84,0Zm-24.5,0L49,7.64l5.26,5.12L53,20l6.49-3.42L66,20l-1.24-7.24L70,7.64,62.76,6.58,59.51,0Zm-24.5,0L24.5,7.64l5.26,5.12L28.52,20,35,16.58,41.51,20l-1.24-7.24,5.26-5.12L38.26,6.58,35,0Z"/></g></g></svg>